<svg xmlns="http://www.w3.org/2000/svg" xmlns:xlink="http://www.w3.org/1999/xlink" version="1.1" style="enable-background:new 0 0 512.001 512.001;" xml:space="preserve" width="512.001" height="512.001"><rect id="backgroundrect" width="100%" height="100%" x="0" y="0" fill="none" stroke="none"/>























<g class="currentLayer" style=""><title>Layer 1</title><path style="fill:#690812;" d="M240.587,109.836l-44.448-20.742l34.971-74.94C235.14,5.519,243.805,0,253.334,0h146.131  c13.545,0,24.525,10.98,24.525,24.525v74.94h-49.05V49.05H268.952L240.587,109.836z" id="svg_1"/><g id="svg_2">
	<polygon style="fill:#58020E;" points="208.727,62.118 196.138,89.094 240.587,109.836 262.854,62.118  " id="svg_3"/>
	<rect x="374.94500732421875" y="62.11800003051758" style="fill:#58020E;" width="49.04999923706055" height="37.349998474121094" id="svg_4"/>
</g><rect x="103.50599670410156" y="90.77200317382812" transform="matrix(-0.7071,0.7071,-0.7071,-0.7071,312.1776,106.2497) " style="fill:#991718;" width="61.15599822998047" height="54.013999938964844" id="svg_5"/><path style="fill:#DE3205;" d="M185.644,85.189l-83.617,83.617c-5.009,5.009-7.823,11.803-7.823,18.887v297.599  c0,14.751,11.959,26.709,26.709,26.709h292.129c14.751,0,26.709-11.959,26.709-26.709V104.074c0-14.751-11.959-26.709-26.709-26.709  H204.53C197.446,77.366,190.653,80.18,185.644,85.189z" id="svg_6"/><path style="fill:#9D2217;" d="M413.043,77.366H266.887v434.635h146.154c14.751,0,26.709-11.959,26.709-26.71V104.074  C439.752,89.324,427.794,77.366,413.043,77.366z" id="svg_7"/><path style="fill:#3E3E42;" d="M152.541,99.378l-36.856,36.856c-6.988,6.988-18.317,6.988-25.305,0L77.49,123.343  c-6.988-6.988-6.988-18.317,0-25.305l36.856-36.856c6.988-6.988,18.317-6.988,25.305,0l12.891,12.891  C159.529,81.06,159.529,92.39,152.541,99.378z" id="svg_8"/><g id="svg_9">
	<path style="fill:#6E190C;" d="M175.828,403.778c-4.593,0-9.185-1.751-12.688-5.257c-7.008-7.008-7.008-18.37,0-25.378   l182.299-182.301c7.007-7.008,18.37-7.008,25.378,0c7.008,7.008,7.008,18.37,0,25.378L188.517,398.522   C185.013,402.026,180.42,403.778,175.828,403.778z" id="svg_10"/>
	<path style="fill:#6E190C;" d="M358.128,403.778c-4.593,0-9.184-1.751-12.688-5.257L163.139,216.222   c-7.008-7.008-7.008-18.37,0-25.378c7.007-7.008,18.37-7.008,25.378,0l182.299,182.301c7.008,7.008,7.008,18.37,0,25.378   C367.314,402.025,362.72,403.778,358.128,403.778z" id="svg_11"/>
</g><path style="fill:#57565C;" d="M95.918,79.61l38.196,38.196l18.428-18.428c6.988-6.988,6.988-18.317,0-25.305l-12.891-12.891  c-6.988-6.988-18.317-6.988-25.305,0L95.918,79.61z" id="svg_12"/><g id="svg_13">
</g><g id="svg_14">
</g><g id="svg_15">
</g><g id="svg_16">
</g><g id="svg_17">
</g><g id="svg_18">
</g><g id="svg_19">
</g><g id="svg_20">
</g><g id="svg_21">
</g><g id="svg_22">
</g><g id="svg_23">
</g><g id="svg_24">
</g><g id="svg_25">
</g><g id="svg_26">
</g><g id="svg_27">
</g></g></svg>