<svg xmlns="http://www.w3.org/2000/svg" xmlns:xlink="http://www.w3.org/1999/xlink" version="1.1" style="enable-background:new 0 0 297 297;" xml:space="preserve" width="297" height="297"><rect id="backgroundrect" width="100%" height="100%" x="0" y="0" fill="none" stroke="none"/>
















<g class="currentLayer" style=""><title>Layer 1</title><g id="svg_1">
	<path style="fill:#17AB93;" d="M261.101,37.065L151.247,0.446c-1.784-0.595-3.71-0.595-5.495,0L35.899,37.065   c-3.547,1.182-5.939,4.502-5.939,8.24V178.46c0,65.544,110.295,115.68,114.99,117.781c1.13,0.506,2.339,0.758,3.55,0.758   s2.42-0.252,3.55-0.758c4.695-2.102,114.99-52.237,114.99-117.781V45.305C267.04,41.566,264.648,38.246,261.101,37.065z" id="svg_2"/>
	<path style="fill:#11937A;" d="M261.101,37.065L151.247,0.446c-1.002-0.334-2.047-0.46-3.088-0.419v296.955   c0.114,0.004,0.227,0.018,0.34,0.018c1.211,0,2.42-0.252,3.55-0.758c4.695-2.102,114.99-52.237,114.99-117.781V45.305   C267.04,41.566,264.648,38.246,261.101,37.065z" id="svg_3"/>
	<path style="fill:#82D9C8;" d="M225.145,70.84l-73.899-24.633c-1.782-0.595-3.71-0.595-5.493,0L71.855,70.84   c-3.548,1.182-5.94,4.502-5.94,8.24v89.574c0,19.869,13.641,39.817,40.542,59.291c18.982,13.74,37.705,22.183,38.493,22.536   c1.13,0.506,2.339,0.758,3.55,0.758s2.42-0.252,3.55-0.758c0.787-0.352,19.511-8.796,38.493-22.536   c26.902-19.474,40.542-39.422,40.542-59.291V79.08C231.085,75.342,228.693,72.022,225.145,70.84z" id="svg_4"/>
	<path style="fill:#67C1B0;" d="M225.145,70.84l-73.899-24.633c-1-0.334-2.046-0.46-3.087-0.419v205.433   c0.114,0.004,0.227,0.018,0.34,0.018c1.211,0,2.42-0.252,3.55-0.758c0.787-0.352,19.511-8.796,38.493-22.536   c26.902-19.474,40.542-39.422,40.542-59.291V79.08C231.085,75.342,228.693,72.022,225.145,70.84z" id="svg_5"/>
</g><g id="svg_6">
</g><g id="svg_7">
</g><g id="svg_8">
</g><g id="svg_9">
</g><g id="svg_10">
</g><g id="svg_11">
</g><g id="svg_12">
</g><g id="svg_13">
</g><g id="svg_14">
</g><g id="svg_15">
</g><g id="svg_16">
</g><g id="svg_17">
</g><g id="svg_18">
</g><g id="svg_19">
</g><g id="svg_20">
</g></g></svg>