<svg xmlns="http://www.w3.org/2000/svg" xmlns:xlink="http://www.w3.org/1999/xlink" version="1.1" style="" xml:space="preserve" width="512" height="512"><rect id="backgroundrect" width="100%" height="100%" x="0" y="0" fill="none" stroke="none"/>




















<g class="currentLayer" style=""><title>Layer 1</title><path style="fill:#93C7EF;" d="M256,0C114.842,0,0,114.842,0,256s114.842,256,256,256s256-114.842,256-256S397.158,0,256,0z" id="svg_1"/><path style="fill:#78B9EB;" d="M256,512c141.158,0,256-114.842,256-256S397.158,0,256,0" id="svg_2"/><path style="" d="M256,62.439C149.27,62.439,62.439,149.27,62.439,256S149.27,449.561,256,449.561  S449.561,362.73,449.561,256S362.73,62.439,256,62.439z" id="svg_3" class="" fill="#0bd50b" fill-opacity="1"/><path style="" d="M256,449.561c106.73,0,193.561-86.831,193.561-193.561S362.73,62.439,256,62.439" id="svg_4" class="" fill="#009900" fill-opacity="1"/>
	<path style="fill:#FFFFFF;" d="M156.98873496448965,115.53698873220281 l31.189956573307512,-18.98526719212532 l68.49627124476433,122.54575062704086 c0.05397353506088257,-0.0020116839408874498 0.10698325699567802,-0.0060350518226623675 0.15999297893047368,-0.0060350518226623675 c19.941293578743934,0 36.10733114260435,16.871993212223053 36.10733114260435,37.68185773873329 S276.77624934023595,294.45414675079184 256.834955761492,294.45414675079184 S220.7276246188876,277.5831593805392 220.7276246188876,256.77228901205854 c0,-6.804520930051805 1.7367912532091165,-13.181559022665024 4.759309216618537,-18.69055549478531 L156.98873496448965,115.53698873220281 z" id="svg_6" class="selected" transform="rotate(-0.0000037125519156688824 224.96551513671875,195.5029293457759) "/>
	<circle style="fill:#FFFFFF;" cx="256" cy="62.43899917602539" r="18.73200035095215" id="svg_7" class=""/>
	<circle style="fill:#FFFFFF;" cx="88.3759994506836" cy="159.22000122070312" r="18.73200035095215" id="svg_8" class=""/>
	<circle style="fill:#FFFFFF;" cx="88.3759994506836" cy="352.7799987792969" r="18.73200035095215" id="svg_9" class=""/>
	<circle style="fill:#FFFFFF;" cx="423.6239929199219" cy="352.7799987792969" r="18.73200035095215" id="svg_10" class=""/>
	<circle style="fill:#FFFFFF;" cx="423.6239929199219" cy="159.22000122070312" r="18.73200035095215" id="svg_11" class=""/>
	<rect x="206.0489959716797" y="362.14599609375" style="fill:#FFFFFF;" width="99.9020004272461" height="37.4630012512207" id="svg_12" class=""/>
<g id="svg_13">
</g><g id="svg_14">
</g><g id="svg_15">
</g><g id="svg_16">
</g><g id="svg_17">
</g><g id="svg_18">
</g><g id="svg_19">
</g><g id="svg_20">
</g><g id="svg_21">
</g><g id="svg_22">
</g><g id="svg_23">
</g><g id="svg_24">
</g><g id="svg_25">
</g><g id="svg_26">
</g><g id="svg_27">
</g></g></svg>