<svg xmlns="http://www.w3.org/2000/svg" xmlns:xlink="http://www.w3.org/1999/xlink" version="1.1" style="enable-background:new 0 0 512 512;" xml:space="preserve" width="512" height="512"><rect id="backgroundrect" width="100%" height="100%" x="0" y="0" fill="none" stroke="none"/>




















<g class="currentLayer" style=""><title>Layer 1</title><path style="fill:#93C7EF;" d="M256,0C114.842,0,0,114.842,0,256s114.842,256,256,256s256-114.842,256-256S397.158,0,256,0z" id="svg_1"/><path style="fill:#78B9EB;" d="M256,512c141.158,0,256-114.842,256-256S397.158,0,256,0" id="svg_2"/><path style="fill:#FFAD41;" d="M256,62.439C149.27,62.439,62.439,149.27,62.439,256S149.27,449.561,256,449.561  S449.561,362.73,449.561,256S362.73,62.439,256,62.439z" id="svg_3"/><path style="fill:#FF9811;" d="M256,449.561c106.73,0,193.561-86.831,193.561-193.561S362.73,62.439,256,62.439" id="svg_4"/><g id="svg_5">
	<path style="fill:#FFFFFF;" d="M359.595,115.585l-32.361-18.875l-71.068,121.834c-0.056-0.002-0.111-0.006-0.166-0.006   c-20.69,0-37.463,16.774-37.463,37.463S235.31,293.463,256,293.463S293.463,276.69,293.463,256c0-6.765-1.802-13.105-4.938-18.582   L359.595,115.585z" id="svg_6"/>
	<circle style="fill:#FFFFFF;" cx="256" cy="62.43899917602539" r="18.73200035095215" id="svg_7"/>
	<circle style="fill:#FFFFFF;" cx="88.3759994506836" cy="159.22000122070312" r="18.73200035095215" id="svg_8"/>
	<circle style="fill:#FFFFFF;" cx="88.3759994506836" cy="352.7799987792969" r="18.73200035095215" id="svg_9"/>
	<circle style="fill:#FFFFFF;" cx="423.6239929199219" cy="352.7799987792969" r="18.73200035095215" id="svg_10"/>
	<circle style="fill:#FFFFFF;" cx="423.6239929199219" cy="159.22000122070312" r="18.73200035095215" id="svg_11"/>
	<rect x="206.0489959716797" y="362.14599609375" style="fill:#FFFFFF;" width="99.9020004272461" height="37.4630012512207" id="svg_12"/>
</g><g id="svg_13">
</g><g id="svg_14">
</g><g id="svg_15">
</g><g id="svg_16">
</g><g id="svg_17">
</g><g id="svg_18">
</g><g id="svg_19">
</g><g id="svg_20">
</g><g id="svg_21">
</g><g id="svg_22">
</g><g id="svg_23">
</g><g id="svg_24">
</g><g id="svg_25">
</g><g id="svg_26">
</g><g id="svg_27">
</g></g></svg>